<svg width="104" height="50" viewBox="0 0 104 50" fill="none" xmlns="http://www.w3.org/2000/svg">
<g clip-path="url(#clip0_1311_29981)">
<path d="M0.0375134 13.4636C0.0375134 10.9689 0.016881 9.4459 0 8.32988H3.57503C3.62942 8.83818 3.68382 10.3931 3.68382 12.0812C4.64228 9.59971 6.84995 7.95474 9.99357 7.88159V11.4754C6.13156 11.5504 3.68382 13.3792 3.68382 18.2372V27.2404H0.0375134V13.4636Z" fill="#BC172F"/>
<path d="M14.379 18.4773C14.3977 22.0411 16.189 24.6877 19.2801 24.6877C22.1142 24.6877 23.0146 23.2753 23.5941 21.938H27.2592C26.5296 24.3388 24.4945 27.6813 19.1676 27.6813C13.1729 27.6813 10.6914 22.8833 10.6914 18.0065C10.6914 12.3158 13.5687 7.87793 19.3795 7.87793C25.5542 7.87793 27.5931 12.7322 27.5931 16.8999C27.6034 17.4244 27.5852 17.9491 27.5387 18.4717L14.379 18.4773ZM23.9055 15.9996C23.8699 13.066 22.4369 10.6914 19.3382 10.6914C16.1721 10.6914 14.7972 12.8935 14.4896 15.9996H23.9055Z" fill="#BC172F"/>
<path d="M30.6748 0H34.3249V4.194H30.6748V0ZM30.6748 8.32985H34.3249V27.2347H30.6748V8.32985Z" fill="#BC172F"/>
<path d="M40.4618 21.7729C40.9758 23.7311 42.4463 24.8752 44.8922 24.8752C47.505 24.8752 48.5216 23.7761 48.5216 22.1686C48.5216 20.5068 47.6644 19.7547 44.2301 18.92C38.68 17.5658 37.5752 15.8645 37.5752 13.278C37.5752 10.5808 39.5409 7.88354 44.5639 7.88354C49.587 7.88354 51.5939 10.7665 51.8228 13.3868H48.3115C48.0621 12.2614 47.2255 10.6389 44.4064 10.6389C41.9342 10.6389 41.1915 11.8131 41.1915 12.9779C41.1915 14.2908 41.9305 14.9492 45.3179 15.7576C51.1625 17.1381 52.2579 19.1 52.2579 21.9023C52.2579 25.1791 49.6789 27.6812 44.7665 27.6812C39.7022 27.6812 37.3126 25.1491 36.8418 21.7729H40.4618Z" fill="#BC172F"/>
<path d="M66.9614 10.4023H70.0769C70.1257 10.9088 70.0769 12.7507 70.0769 14.5119C71.0147 12.0736 73.1718 10.4943 76.156 10.4023V13.5047C72.4553 13.6154 70.0769 15.5473 70.0769 20.1108V27.1765H66.9614C66.9614 27.1765 66.9764 11.3627 66.9614 10.4023Z" fill="#BC172F"/>
<path d="M65.9956 10.4023H62.8801C62.8313 10.9088 62.8801 12.7507 62.8801 14.5119C61.9422 12.0736 59.7833 10.4943 56.801 10.4023V13.5047C60.5017 13.6154 62.8801 15.5473 62.8801 20.1108V27.1765H65.9956C65.9956 27.1765 65.9824 11.3627 65.9956 10.4023Z" fill="#BC172F"/>
<path d="M80.4663 8.16479V11.5204C79.4834 11.5072 62.0078 11.5204 62.0078 11.5204V8.16479H80.4663Z" fill="#BC172F"/>
<path d="M70.9548 8.16479V11.5204C69.972 11.5072 52.4963 11.5204 52.4963 11.5204V8.16479H70.9548Z" fill="#BC172F"/>
<path d="M85.4255 8.32983C88.2652 16.8923 89.9496 22.0672 90.4129 23.9542H90.4485C91.0225 21.8572 92.3242 17.5488 95.2502 8.32983H98.919L92.2079 28.0431C90.3078 33.5557 88.8692 35 84.8684 35C84.1619 34.9976 83.4562 34.955 82.7545 34.8724V31.7663C83.2585 31.8289 83.7659 31.8608 84.2738 31.862C86.5771 31.862 87.4981 30.8829 88.5353 27.9343L81.4922 8.32983H85.4255Z" fill="#BC172F"/>
<path d="M99.9732 8.84572C99.971 8.50264 100.056 8.16457 100.219 7.86287C100.376 7.56706 100.611 7.31989 100.898 7.14824C101.181 6.97731 101.505 6.88696 101.836 6.88696C102.166 6.88696 102.491 6.97731 102.774 7.14824C103.061 7.32041 103.295 7.56745 103.453 7.86287C103.615 8.16632 103.7 8.50523 103.7 8.84947C103.7 9.19372 103.615 9.53262 103.453 9.83608C103.295 10.1316 103.059 10.3786 102.772 10.5507C102.489 10.7225 102.164 10.8121 101.834 10.8095C101.503 10.8122 101.178 10.7212 100.896 10.547C100.609 10.3743 100.375 10.1274 100.217 9.83232C100.054 9.52919 99.9702 9.18986 99.9732 8.84572ZM100.292 8.84572C100.29 9.1273 100.358 9.40498 100.489 9.65414C100.616 9.90066 100.807 10.1086 101.042 10.2562C101.279 10.4053 101.554 10.4835 101.834 10.4813C102.113 10.4837 102.386 10.4055 102.622 10.2562C102.86 10.1109 103.055 9.90341 103.184 9.65601C103.314 9.40586 103.381 9.12831 103.381 8.84666C103.381 8.56501 103.314 8.28746 103.184 8.03731C103.054 7.79087 102.86 7.58416 102.622 7.43897C102.385 7.29158 102.112 7.21419 101.834 7.21577C101.561 7.21461 101.293 7.28859 101.059 7.42959C100.821 7.57221 100.627 7.77716 100.497 8.0223C100.359 8.27479 100.287 8.55807 100.288 8.84572H100.292ZM101.457 9.04642V9.92986H101.061V7.69969H101.798C102.023 7.68751 102.245 7.75381 102.427 7.88726C102.5 7.94913 102.559 8.02718 102.598 8.11533C102.636 8.20349 102.654 8.29938 102.65 8.39556C102.65 8.48882 102.624 8.58032 102.575 8.65937C102.525 8.73842 102.454 8.80175 102.37 8.84197C102.465 8.89218 102.54 8.97367 102.582 9.07268C102.625 9.18906 102.646 9.31256 102.642 9.43656C102.642 9.58099 102.642 9.68227 102.642 9.74229C102.646 9.79335 102.658 9.84345 102.678 9.89047V9.93361H102.271C102.239 9.76553 102.228 9.59423 102.237 9.42343C102.246 9.32032 102.215 9.21783 102.151 9.13645C102.07 9.07089 101.966 9.0399 101.862 9.05017L101.457 9.04642ZM101.457 8.69379H101.793C101.909 8.69875 102.024 8.6701 102.125 8.61126C102.165 8.58979 102.198 8.55783 102.221 8.51884C102.244 8.47984 102.256 8.43528 102.256 8.38994C102.261 8.34237 102.255 8.29428 102.239 8.24917C102.224 8.20405 102.198 8.16307 102.164 8.12922C102.063 8.06742 101.945 8.0392 101.826 8.04856H101.451L101.457 8.69379Z" fill="#BC172F"/>
</g>
<path d="M36.092 45.5V37.16H41.456V38.108H37.184V40.82H41.192V41.768H37.184V45.5H36.092ZM45.1209 39.272C46.8129 39.272 47.9169 40.544 47.9169 42.452C47.9169 44.204 46.9089 45.644 45.0489 45.644C43.3089 45.644 42.2529 44.3 42.2529 42.476C42.2529 40.676 43.2849 39.272 45.1209 39.272ZM45.0729 40.16C43.9329 40.16 43.3329 41.072 43.3329 42.464C43.3329 43.796 44.0049 44.768 45.0969 44.768C46.2129 44.768 46.8369 43.844 46.8369 42.464C46.8369 41.096 46.2129 40.16 45.0729 40.16ZM49.2825 45.5V41.072C49.2825 40.22 49.2825 39.74 49.2705 39.416H50.3025C50.3265 39.596 50.3385 40.064 50.3385 40.664C50.6505 39.836 51.3825 39.308 52.3905 39.272V40.328C51.1425 40.364 50.3385 41.012 50.3385 42.548V45.5H49.2825ZM61.9844 40.652V41.6H57.8324V44.552H62.3924L62.2484 45.5H56.7404V37.16H62.1764V38.108H57.8324V40.652H61.9844ZM62.9409 39.416H64.0569C64.8849 41.912 65.4849 43.772 65.6649 44.528H65.6769C65.8209 43.856 66.4689 42.032 67.3809 39.416H68.4609L66.2169 45.5H65.0649L62.9409 39.416ZM74.3705 42.656H70.0865C70.0865 43.892 70.7105 44.768 71.7425 44.768C72.7145 44.768 73.0265 44.276 73.2185 43.832H74.2745C74.0345 44.612 73.3865 45.644 71.7185 45.644C69.7985 45.644 69.0185 44.096 69.0185 42.524C69.0185 40.724 69.9305 39.272 71.7785 39.272C73.7465 39.272 74.3945 40.856 74.3945 42.152C74.3945 42.332 74.3945 42.488 74.3705 42.656ZM70.1225 41.912H73.3265C73.3145 40.916 72.8105 40.112 71.7665 40.112C70.6985 40.112 70.2305 40.856 70.1225 41.912ZM75.7555 45.5V40.952C75.7555 40.424 75.7555 39.896 75.7435 39.416H76.7635C76.7875 39.596 76.8115 40.244 76.7995 40.424C77.0515 39.896 77.5435 39.272 78.7195 39.272C79.8595 39.272 80.7475 39.98 80.7475 41.588V45.5H79.7035V41.732C79.7035 40.808 79.3435 40.184 78.4075 40.184C77.2675 40.184 76.7995 41.06 76.7995 42.284V45.5H75.7555ZM81.69 40.28V39.416H82.746V37.628H83.802V39.416H85.134V40.28H83.802V43.844C83.802 44.432 83.946 44.732 84.486 44.732C84.642 44.732 84.858 44.732 85.026 44.684V45.476C84.762 45.572 84.402 45.584 84.114 45.584C83.166 45.584 82.746 45.104 82.746 44.084V40.28H81.69ZM85.8678 43.76H86.9118C87.0798 44.432 87.5718 44.816 88.3998 44.816C89.2998 44.816 89.6478 44.432 89.6478 43.88C89.6478 43.316 89.3718 43.052 88.2078 42.764C86.4678 42.344 86.1078 41.816 86.1078 40.988C86.1078 40.124 86.7318 39.272 88.3038 39.272C89.8638 39.272 90.5118 40.184 90.5958 41.036H89.5758C89.4918 40.64 89.1918 40.088 88.2558 40.088C87.4038 40.088 87.1518 40.508 87.1518 40.904C87.1518 41.36 87.4038 41.576 88.5198 41.852C90.3558 42.284 90.7278 42.896 90.7278 43.808C90.7278 44.876 89.8878 45.644 88.3638 45.644C86.7918 45.644 86.0238 44.852 85.8678 43.76Z" fill="#2B2B2B"/>
<defs>
<clipPath id="clip0_1311_29981">
<rect width="103.693" height="35" fill="white"/>
</clipPath>
</defs>
</svg>
