<svg width="104" height="35" viewBox="0 0 104 35" fill="none" xmlns="http://www.w3.org/2000/svg">
<g id="Asset 10" clip-path="url(#clip0_2389_17801)">
<g id="Layer 2">
<g id="Layer 1">
<path id="Vector" d="M0.0375134 13.4638C0.0375134 10.9692 0.016881 9.44614 0 8.33012H3.57503C3.62942 8.83843 3.68382 10.3934 3.68382 12.0815C4.64228 9.59995 6.84995 7.95499 9.99357 7.88184V11.4756C6.13156 11.5506 3.68382 13.3794 3.68382 18.2374V27.2406H0.0375134V13.4638Z" fill="#BC172F"/>
<path id="Vector_2" d="M14.3751 18.4773C14.3938 22.0411 16.1851 24.6877 19.2762 24.6877C22.1103 24.6877 23.0107 23.2753 23.5902 21.938H27.2553C26.5257 24.3388 24.4906 27.6813 19.1637 27.6813C13.169 27.6813 10.6875 22.8833 10.6875 18.0065C10.6875 12.3158 13.5648 7.87793 19.3756 7.87793C25.5503 7.87793 27.5892 12.7322 27.5892 16.8999C27.5995 17.4244 27.5813 17.9491 27.5348 18.4717L14.3751 18.4773ZM23.9016 15.9996C23.866 13.066 22.4329 10.6914 19.3343 10.6914C16.1682 10.6914 14.7933 12.8935 14.4857 15.9996H23.9016Z" fill="#BC172F"/>
<path id="Vector_3" d="M30.6719 0H34.3219V4.194H30.6719V0ZM30.6719 8.32985H34.3219V27.2347H30.6719V8.32985Z" fill="#BC172F"/>
<path id="Vector_4" d="M40.4638 21.7731C40.9777 23.7313 42.4483 24.8755 44.8941 24.8755C47.5069 24.8755 48.5235 23.7763 48.5235 22.1689C48.5235 20.507 47.6664 19.7549 44.232 18.9202C38.6819 17.566 37.5771 15.8648 37.5771 13.2782C37.5771 10.581 39.5428 7.88379 44.5659 7.88379C49.5889 7.88379 51.5959 10.7667 51.8247 13.387H48.3135C48.064 12.2616 47.2275 10.6391 44.4083 10.6391C41.9362 10.6391 41.1934 11.8133 41.1934 12.9781C41.1934 14.2911 41.9324 14.9494 45.3199 15.7579C51.1645 17.1383 52.2599 19.1003 52.2599 21.9025C52.2599 25.1793 49.6808 27.6815 44.7685 27.6815C39.7041 27.6815 37.3145 25.1493 36.8438 21.7731H40.4638Z" fill="#BC172F"/>
<path id="Vector_5" d="M66.9609 10.4023H70.0764C70.1252 10.9088 70.0764 12.7507 70.0764 14.5119C71.0143 12.0736 73.1713 10.4943 76.1555 10.4023V13.5047C72.4548 13.6154 70.0764 15.5473 70.0764 20.1108V27.1765H66.9609C66.9609 27.1765 66.9759 11.3627 66.9609 10.4023Z" fill="#BC172F"/>
<path id="Vector_6" d="M65.9992 10.4023H62.8837C62.835 10.9088 62.8837 12.7507 62.8837 14.5119C61.9459 12.0736 59.787 10.4943 56.8047 10.4023V13.5047C60.5054 13.6154 62.8837 15.5473 62.8837 20.1108V27.1765H65.9992C65.9992 27.1765 65.9861 11.3627 65.9992 10.4023Z" fill="#BC172F"/>
<path id="Vector_7" d="M80.4663 8.16504V11.5206C79.4834 11.5075 62.0078 11.5206 62.0078 11.5206V8.16504H80.4663Z" fill="#BC172F"/>
<path id="Vector_8" d="M70.9585 8.16504V11.5206C69.9756 11.5075 52.5 11.5206 52.5 11.5206V8.16504H70.9585Z" fill="#BC172F"/>
<path id="Vector_9" d="M85.4255 8.33008C88.2652 16.8925 89.9496 22.0675 90.4129 23.9544H90.4485C91.0225 21.8574 92.3242 17.549 95.2502 8.33008H98.919L92.2079 28.0434C90.3078 33.556 88.8692 35.0002 84.8684 35.0002C84.1619 34.9978 83.4562 34.9552 82.7545 34.8727V31.7666C83.2585 31.8291 83.7659 31.8611 84.2738 31.8622C86.5771 31.8622 87.4981 30.8831 88.5353 27.9346L81.4922 8.33008H85.4255Z" fill="#BC172F"/>
<path id="Vector_10" d="M99.9766 8.84548C99.9745 8.5024 100.059 8.16432 100.222 7.86263C100.379 7.56682 100.614 7.31964 100.901 7.148C101.184 6.97707 101.509 6.88672 101.839 6.88672C102.17 6.88672 102.494 6.97707 102.777 7.148C103.064 7.32017 103.299 7.56721 103.456 7.86263C103.619 8.16608 103.704 8.50499 103.704 8.84923C103.704 9.19347 103.619 9.53238 103.456 9.83583C103.298 10.1313 103.063 10.3783 102.775 10.5505C102.493 10.7223 102.168 10.8119 101.837 10.8093C101.506 10.812 101.181 10.7209 100.899 10.5467C100.613 10.374 100.378 10.1271 100.22 9.83208C100.058 9.52895 99.9737 9.18962 99.9766 8.84548ZM100.296 8.84548C100.294 9.12705 100.361 9.40474 100.492 9.65389C100.62 9.90041 100.811 10.1083 101.046 10.256C101.283 10.4051 101.557 10.4832 101.837 10.4811C102.116 10.4834 102.39 10.4053 102.625 10.256C102.864 10.1106 103.058 9.90317 103.188 9.65577C103.317 9.40562 103.385 9.12807 103.385 8.84642C103.385 8.56476 103.317 8.28722 103.188 8.03706C103.057 7.79063 102.863 7.58392 102.625 7.43873C102.389 7.29134 102.116 7.21395 101.837 7.21552C101.564 7.21437 101.296 7.28835 101.063 7.42935C100.825 7.57196 100.63 7.77691 100.5 8.02206C100.362 8.27455 100.29 8.55783 100.292 8.84548H100.296ZM101.46 9.04618V9.92962H101.065V7.69944H101.802C102.027 7.68726 102.249 7.75356 102.43 7.88701C102.504 7.94889 102.562 8.02694 102.601 8.11509C102.64 8.20325 102.658 8.29914 102.653 8.39532C102.654 8.48858 102.628 8.58008 102.578 8.65912C102.529 8.73817 102.458 8.80151 102.374 8.84173C102.469 8.89193 102.544 8.97342 102.586 9.07243C102.629 9.18882 102.649 9.31231 102.646 9.43632C102.646 9.58074 102.646 9.68203 102.646 9.74205C102.649 9.7931 102.661 9.84321 102.681 9.89023V9.93337H102.274C102.243 9.76528 102.231 9.59399 102.241 9.42319C102.249 9.32007 102.218 9.21759 102.154 9.13621C102.073 9.07065 101.969 9.03966 101.865 9.04993L101.46 9.04618ZM101.46 8.69355H101.796C101.912 8.6985 102.028 8.66985 102.128 8.61102C102.168 8.58954 102.201 8.55759 102.224 8.51859C102.248 8.4796 102.26 8.43503 102.259 8.38969C102.264 8.34213 102.259 8.29403 102.243 8.24892C102.227 8.20381 102.201 8.16283 102.167 8.12897C102.066 8.06718 101.948 8.03895 101.83 8.04832H101.455L101.46 8.69355Z" fill="#BC172F"/>
</g>
</g>
</g>
<defs>
<clipPath id="clip0_2389_17801">
<rect width="103.693" height="35" fill="white"/>
</clipPath>
</defs>
</svg>
